<svg width="1600" height="900" viewBox="0 0 1600 900" fill="none" xmlns="http://www.w3.org/2000/svg">
  <defs>
    <linearGradient id="sky" x1="0" y1="0" x2="0" y2="1">
      <stop offset="0%" stop-color="#6f8fa7" />
      <stop offset="65%" stop-color="#97a7b4" />
      <stop offset="100%" stop-color="#cfd6da" />
    </linearGradient>
    <linearGradient id="ridge" x1="0" y1="0" x2="1" y2="1">
      <stop offset="0%" stop-color="#2d463e" />
      <stop offset="100%" stop-color="#1f2d29" />
    </linearGradient>
    <linearGradient id="ridge2" x1="0" y1="0" x2="1" y2="1">
      <stop offset="0%" stop-color="#3f5a52" />
      <stop offset="100%" stop-color="#2b3b36" />
    </linearGradient>
  </defs>
  <rect width="1600" height="900" fill="url(#sky)" />
  <path d="M0 700 L300 420 L520 620 L760 360 L1020 640 L1280 430 L1600 640 L1600 900 L0 900 Z" fill="url(#ridge)" />
  <path d="M0 760 L220 520 L420 720 L700 460 L980 760 L1240 520 L1600 700 L1600 900 L0 900 Z" fill="url(#ridge2)" opacity="0.85" />
  <path d="M540 520 L760 360 L860 520 Z" fill="#e8ecef" opacity="0.7" />
  <path d="M250 590 L380 460 L460 580 Z" fill="#e8ecef" opacity="0.6" />
  <path d="M1120 600 L1260 460 L1350 590 Z" fill="#e8ecef" opacity="0.6" />
</svg>
